Coordinates
version=1
nRows=26
nColumns=22
inDegrees=yes

Units are S.I. units (second, meters, Newtons, ...)
If the header above contains a line with 'inDegrees', this indicates whether rotational values are in degrees (yes) or radians (no).

endheader
time	pelvis_tilt	pelvis_list	pelvis_rotation	pelvis_tx	pelvis_ty	pelvis_tz	hip_flexion_r	hip_adduction_r	hip_rotation_r	knee_angle_r	ankle_angle_r	subtalar_angle_r	hip_flexion_l	hip_adduction_l	hip_rotation_l	knee_angle_l	ankle_angle_l	subtalar_angle_l	lumbar_extension	lumbar_bending	lumbar_rotation
      0.01000000	      6.25259321	     -3.16972469	      4.53407672	      1.14251891	      0.94295606	     -0.07305383	     -9.18762824	      4.53376499	    -10.25519724	     -9.03525846	     12.07201318	      0.93706100	     -7.14524606	     -4.68228929	    -10.04730510	    -14.90891458	     22.90916505	     -8.48048782	    -11.87913508	      3.28671995	     -8.87282653
      0.02000000	      6.24916094	     -3.16131388	      4.57190832	      1.14255466	      0.94292810	     -0.07316444	     -9.19183216	      4.53137656	    -10.22197084	     -9.03225706	     12.08269558	      0.94099091	     -7.12313764	     -4.67655125	    -10.01472984	    -14.93956015	     22.90233142	     -8.49210673	    -11.86618857	      3.28835221	     -8.91720699
      0.03000000	      6.25221462	     -3.15685343	      4.59160726	      1.14262933	      0.94290923	     -0.07326583	     -9.19967557	      4.52654774	    -10.21380494	     -9.03871244	     12.08367153	      0.94116121	     -7.12780477	     -4.67121472	    -10.01393110	    -14.94184044	     22.90307944	     -8.49275183	    -11.85346537	      3.29365546	     -8.91520623
      0.04000000	      6.26122945	     -3.13173190	      4.62179001	      1.14267854	      0.94290287	     -0.07335932	     -9.23060392	      4.50903331	    -10.14340024	     -9.01501561	     12.10914416	      0.94423427	     -7.13825420	     -4.64288681	     -9.96469064	    -14.94042574	     22.91433279	     -8.49532397	    -11.85436349	      3.27096668	     -8.95510327
      0.05000000	      6.26534134	     -3.12837484	      4.63651899	      1.14273797	      0.94289037	     -0.07344157	     -9.23894145	      4.50527770	    -10.13746932	     -9.01943806	     12.11036132	      0.94427357	     -7.14425905	     -4.63819839	     -9.96375313	    -14.94165604	     22.91401149	     -8.49597487	    -11.84410801	      3.27662837	     -8.95163117
      0.06000000	      6.26981068	     -3.12464552	      4.65017091	      1.14278378	      0.94287888	     -0.07350730	     -9.24795715	      4.50182782	    -10.12957380	     -9.02195540	     12.11256611	      0.94445830	     -7.14992423	     -4.63398625	     -9.96074898	    -14.94306875	     22.91439162	     -8.49637119	    -11.83590890	      3.27925508	     -8.94945276
      0.07000000	      6.29077264	     -3.10554233	      4.67058407	      1.14281101	      0.94289702	     -0.07355253	     -9.30205158	      4.49284076	    -10.07245916	     -8.97154497	     12.14541784	      0.94870089	     -7.17526267	     -4.61251113	     -9.90291290	    -14.93797912	     22.92437318	     -8.49904139	    -11.85353777	      3.25773053	     -8.95771867
      0.08000000	      6.29456678	     -3.10463330	      4.67544504	      1.14283320	      0.94289064	     -0.07359398	     -9.30805544	      4.49006001	    -10.07143411	     -8.97417061	     12.14526589	      0.94882276	     -7.18025889	     -4.61027656	     -9.90324385	    -14.93790264	     22.92384514	     -8.49990341	    -11.84705021	      3.26420680	     -8.95624100
      0.09000000	      6.29829433	     -3.10411015	      4.67888375	      1.14284933	      0.94288457	     -0.07361603	     -9.31457799	      4.48889120	    -10.07160231	     -8.97388787	     12.14560163	      0.94926631	     -7.18485682	     -4.60947953	     -9.90204581	    -14.93862474	     22.92387873	     -8.50083520	    -11.84148084	      3.26815827	     -8.95330802
      0.10000000	      6.30901070	     -3.10780898	      4.68422316	      1.14286579	      0.94289029	     -0.07362900	     -9.34184372	      4.49581688	    -10.08416243	     -8.94415928	     12.14927828	      0.95486832	     -7.19742662	     -4.61382403	     -9.88899013	    -14.93689254	     22.92882610	     -8.50745293	    -11.84357672	      3.27503485	     -8.93337068
      0.11000000	      6.31285758	     -3.10706405	      4.68662503	      1.14286488	      0.94288572	     -0.07363768	     -9.34634181	      4.49463662	    -10.08357637	     -8.94558903	     12.14864883	      0.95563098	     -7.20011652	     -4.61349393	     -9.88799920	    -14.93923339	     22.92955011	     -8.50818460	    -11.83847976	      3.27835022	     -8.93303844
      0.12000000	      6.31635783	     -3.10688799	      4.68735061	      1.14286248	      0.94288053	     -0.07364243	     -9.35175448	      4.49378417	    -10.08512179	     -8.94393427	     12.14820791	      0.95688201	     -7.20168170	     -4.61352542	     -9.88585993	    -14.94315848	     22.93082524	     -8.50904260	    -11.83259537	      3.28275533	     -8.93110886
      0.13000000	      6.31920965	     -3.11355847	      4.69689119	      1.14285770	      0.94287199	     -0.07365052	     -9.36765095	      4.50460918	    -10.10197281	     -8.91580843	     12.14580879	      0.96747251	     -7.19539541	     -4.62335448	     -9.87445526	    -14.95739316	     22.94245417	     -8.51515152	    -11.82605149	      3.29383877	     -8.92044547
      0.14000000	      6.32244365	     -3.11295399	      4.69906022	      1.14285070	      0.94286635	     -0.07365303	     -9.37074786	      4.50382982	    -10.10169488	     -8.91760155	     12.14490639	      0.96866763	     -7.19644276	     -4.62373729	     -9.87349059	    -14.96064119	     22.94367118	     -8.51575259	    -11.81913659	      3.29808575	     -8.92139294
      0.15000000	      6.32490386	     -3.11311066	      4.70124130	      1.14284248	      0.94286007	     -0.07365791	     -9.37370685	      4.50423540	    -10.10291828	     -8.91688706	     12.14420906	      0.97041568	     -7.19600990	     -4.62422815	     -9.87177903	    -14.96526292	     22.94555897	     -8.51649248	    -11.81106684	      3.30399696	     -8.92200556
      0.16000000	      6.31075834	     -3.13341711	      4.72452824	      1.14283019	      0.94282256	     -0.07367681	     -9.37176515	      4.53227239	    -10.12545317	     -8.88367986	     12.13982663	      0.99068216	     -7.15998416	     -4.65216176	     -9.85418512	    -14.99384418	     22.97021462	     -8.52405133	    -11.78159757	      3.33254618	     -8.93546292
      0.17000000	      6.31335361	     -3.13194703	      4.72878433	      1.14281441	      0.94281837	     -0.07368330	     -9.37199560	      4.53104913	    -10.12360607	     -8.88859460	     12.13852273	      0.99165849	     -7.15966329	     -4.65201285	     -9.85390913	    -14.99665270	     22.97160230	     -8.52426212	    -11.77504667	      3.33608697	     -8.93674574
      0.18000000	      6.28342669	     -3.15243723	      4.74668888	      1.14276639	      0.94276060	     -0.07369580	     -9.32715557	      4.55379212	    -10.13117241	     -8.90387604	     12.12880116	      1.01008322	     -7.10561919	     -4.67771837	     -9.83774016	    -15.02341210	     23.00129498	     -8.52658803	    -11.73281410	      3.36459025	     -8.96822109
      0.19000000	      6.28477205	     -3.15010547	      4.75245628	      1.14274657	      0.94275727	     -0.07370802	     -9.32782765	      4.55222910	    -10.13198796	     -8.90363337	     12.12918693	      1.01047236	     -7.10394619	     -4.67643606	     -9.83862242	    -15.02556289	     23.00160386	     -8.52660041	    -11.72612767	      3.36688503	     -8.96361285
      0.20000000	      6.24151019	     -3.16178172	      4.76476751	      1.14270791	      0.94268356	     -0.07371310	     -9.27223832	      4.56333718	    -10.15095755	     -8.91340171	     12.13935526	      1.01436520	     -7.03693657	     -4.69143307	     -9.83349733	    -15.05256155	     23.01615903	     -8.52068699	    -11.66761048	      3.37925909	     -8.96369328
      0.21000000	      6.24300535	     -3.16023923	      4.77210929	      1.14267983	      0.94268294	     -0.07372392	     -9.27146198	      4.56318317	    -10.15036082	     -8.91450098	     12.13953761	      1.01414216	     -7.03688786	     -4.69157894	     -9.83481507	    -15.05125693	     23.01641458	     -8.52052203	    -11.66380539	      3.38080315	     -8.96140552
      0.22000000	      6.24326493	     -3.15924367	      4.78141039	      1.14264827	      0.94268151	     -0.07373602	     -9.26961144	      4.56418077	    -10.15057289	     -8.91524448	     12.14010050	      1.01363851	     -7.03580469	     -4.69261583	     -9.83635333	    -15.04714596	     23.01676939	     -8.52017259	    -11.65910048	      3.38259820	     -8.95829574
      0.23000000	      6.24207613	     -3.15893203	      4.79193948	      1.14261533	      0.94267766	     -0.07374976	     -9.26636721	      4.56608722	    -10.15216628	     -8.91551369	     12.14108955	      1.01269575	     -7.03406207	     -4.69445015	     -9.83778322	    -15.03983444	     23.01723708	     -8.51946830	    -11.65225785	      3.38504151	     -8.95446245
      0.24000000	      6.22515175	     -3.16697081	      4.79800307	      1.14260978	      0.94265506	     -0.07374999	     -9.24813891	      4.57528313	    -10.17011139	     -8.91168275	     12.14631049	      1.00626120	     -7.02745340	     -4.70166618	     -9.83209587	    -15.01196028	     23.01892150	     -8.51371033	    -11.62007061	      3.39373164	     -8.94836586
      0.25000000	      6.22600802	     -3.16428763	      4.80898238	      1.14256537	      0.94265471	     -0.07377422	     -9.24552768	      4.57364213	    -10.16909281	     -8.91384510	     12.14638322	      1.00537287	     -7.02572621	     -4.70068555	     -9.83307712	    -15.00926531	     23.01902640	     -8.51303254	    -11.61702371	      3.39644698	     -8.94616115
      0.26000000	      6.22578378	     -3.16201898	      4.82084277	      1.14252034	      0.94265502	     -0.07379029	     -9.24228932	      4.57347235	    -10.16968227	     -8.91534025	     12.14672999	      1.00418605	     -7.02381906	     -4.70063027	     -9.83423343	    -15.00315470	     23.01906110	     -8.51205374	    -11.61244522	      3.39705086	     -8.94407578
